<?xml version='1.0' encoding='utf-8'?>
<!DOCTYPE svg PUBLIC '-//W3C//DTD SVG 1.1//EN' 'http://www.w3.org/Graphics/SVG/1.1/DTD/svg11.dtd'>
<svg version="1.1" xmlns="http://www.w3.org/2000/svg" viewBox="0 0 512 512" xmlns:xlink="http://www.w3.org/1999/xlink" enable-background="new 0 0 512 512">
  <g>
    <g>
      <path d="m373.6,286.4h-27.5c-11.3,0-20.4-9.1-20.4-20.4 0-11.3 9.1-20.4 20.4-20.4h27.5c11.3,0 20.4,9.1 20.4,20.4 0.1,11.2-9.1,20.4-20.4,20.4zm0,125h-27.5c-11.3,0-20.4-9.1-20.4-20.4 0-11.3 9.1-20.4 20.4-20.4h27.5c11.3,0 20.4,9.1 20.4,20.4 0.1,11.2-9.1,20.4-20.4,20.4zm-103.8-125h-27.5c-11.3,0-20.4-9.1-20.4-20.4 0-11.3 9.1-20.4 20.4-20.4h27.5c11.3,0 20.4,9.1 20.4,20.4 0,11.2-9.2,20.4-20.4,20.4zm0,125h-27.5c-11.3,0-20.4-9.1-20.4-20.4 0-11.3 9.1-20.4 20.4-20.4h27.5c11.3,0 20.4,9.1 20.4,20.4 0,11.2-9.2,20.4-20.4,20.4zm-103.9-125h-27.5c-11.3,0-20.4-9.1-20.4-20.4 0-11.3 9.1-20.4 20.4-20.4h27.5c11.3,0 20.4,9.1 20.4,20.4 0,11.2-9.1,20.4-20.4,20.4zm0,125h-27.5c-11.3,0-20.4-9.1-20.4-20.4 0-11.3 9.1-20.4 20.4-20.4h27.5c11.3,0 20.4,9.1 20.4,20.4 0,11.2-9.1,20.4-20.4,20.4zm-8.1-316.6h196.4c11.3-1.42109e-14 20.4,9.1 20.4,20.4 0,11.3-9.1,20.4-20.4,20.4h-196.4c-11.3,0-20.4-9.1-20.4-20.4 0-11.3 9.1-20.4 20.4-20.4zm276.8-83.8h-357.2c-11.3,0-20.4,9.1-20.4,20.4v449.2c0,11.3 9.1,20.4 20.4,20.4h357.3c11.3,0 20.4-9.1 20.4-20.4v-449.2c0-11.3-9.2-20.4-20.5-20.4z"/>
    </g>
  </g>
</svg>
